<?xml version="1.0" encoding="UTF-8" standalone="no"?>
<!-- Created with Inkscape (http://www.inkscape.org/) -->

<svg
   width="1024"
   height="1024"
   viewBox="0 0 270.93333 270.93333"
   version="1.1"
   id="svg1"
   inkscape:version="1.3.2 (091e20e, 2023-11-25)"
   sodipodi:docname="FontFragrance.svg"
   inkscape:export-filename="../../../../../../../../../home/prakriti/Desktop/FontFragrance.png"
   inkscape:export-xdpi="96"
   inkscape:export-ydpi="96"
   xmlns:inkscape="http://www.inkscape.org/namespaces/inkscape"
   xmlns:sodipodi="http://sodipodi.sourceforge.net/DTD/sodipodi-0.dtd"
   xmlns="http://www.w3.org/2000/svg"
   xmlns:svg="http://www.w3.org/2000/svg">
  <sodipodi:namedview
     id="namedview1"
     pagecolor="#ffffff"
     bordercolor="#000000"
     borderopacity="0.25"
     inkscape:showpageshadow="false"
     inkscape:pageopacity="0.0"
     inkscape:pagecheckerboard="0"
     inkscape:deskcolor="#d1d1d1"
     inkscape:document-units="px"
     inkscape:zoom="0.33593749"
     inkscape:cx="235.1628"
     inkscape:cy="385.48838"
     inkscape:window-width="1280"
     inkscape:window-height="940"
     inkscape:window-x="0"
     inkscape:window-y="0"
     inkscape:window-maximized="1"
     inkscape:current-layer="layer1" />
  <defs
     id="defs1">
    <inkscape:path-effect
       effect="spiro"
       id="path-effect10"
       is_visible="true"
       lpeversion="1" />
    <inkscape:path-effect
       effect="spiro"
       id="path-effect8"
       is_visible="true"
       lpeversion="1" />
    <inkscape:path-effect
       effect="spiro"
       id="path-effect6"
       is_visible="true"
       lpeversion="1" />
    <inkscape:path-effect
       effect="spiro"
       id="path-effect4"
       is_visible="true"
       lpeversion="1" />
    <inkscape:path-effect
       effect="spiro"
       id="path-effect1"
       is_visible="true"
       lpeversion="1" />
  </defs>
  <g
     inkscape:label="Layer 1"
     inkscape:groupmode="layer"
     id="layer1">
    <rect
       style="fill:#4d69a2;fill-opacity:1;stroke-width:1.915;paint-order:fill markers stroke"
       id="rect1"
       width="232.73489"
       height="233.91628"
       x="19.099218"
       y="18.508528"
       ry="36.718555" />
    <rect
       style="fill:#5f88dc;fill-opacity:1;stroke-width:1.87427;paint-order:fill markers stroke"
       id="rect2"
       width="232.73489"
       height="224.07132"
       x="19.099218"
       y="18.508528"
       ry="35.173161" />
    <path
       d="m 77.752492,202.61322 q -1.817172,0 -2.725758,-0.30286 -0.908586,-0.30286 -0.908586,-1.36288 0,-1.21145 1.51431,-1.66574 1.362879,-0.60572 3.937206,-1.06002 5.602947,-1.06001 8.328705,-3.33148 2.725758,-2.4229 4.391499,-8.02584 l 20.746042,-68.14395 q 1.81717,-5.45152 0,-7.72298 -1.81717,-2.27147 -6.8144,-3.33149 -2.27146,-0.45429 -3.02862,-1.21144 -0.75715,-0.75716 -0.75715,-1.81718 0,-0.90858 1.36288,-1.21144 1.51431,-0.4543 3.33148,-0.4543 1.66574,0 6.66296,0.30287 5.14866,0.15143 9.84302,0.15143 h 24.07753 q 10.29731,0 15.44596,-0.90859 5.30009,-0.90859 5.90581,-0.90859 0.75715,0 0.90859,0.4543 0.30286,0.30286 0.30286,1.06001 0,0.60573 -0.30286,1.36288 -0.15144,0.75716 -0.4543,1.96861 -0.75715,2.57432 -1.9686,6.66296 -1.06002,3.93721 -1.51431,6.96583 -0.15143,0.75715 -0.60572,1.66574 -0.4543,0.90858 -1.96861,0.90858 -1.06001,0 -1.36288,-1.06001 -0.30286,-1.21145 -0.30286,-2.4229 0,-2.72576 -0.15143,-5.14865 0,-2.4229 -1.51431,-3.93721 -0.75715,-0.75715 -2.12003,-1.21145 -1.36288,-0.60572 -3.48292,-0.60572 h -21.80606 q -2.87719,0 -4.08864,1.36288 -1.06001,1.36288 -1.81717,3.18005 -0.15143,0.45429 -1.51431,4.54293 -1.36288,3.9372 -3.18005,9.38872 -1.66574,5.45152 -3.33148,10.60017 -1.51431,5.14865 -2.4229,7.87441 -0.30286,1.21145 -0.15143,2.57433 0.15143,1.21145 1.21145,1.21145 l 20.44318,-0.4543 q 6.36011,-0.30286 10.7516,-5.60294 1.06002,-1.21145 2.12004,-2.12004 1.21145,-1.06001 1.81717,-1.06001 0.75716,0 1.21145,0.75715 0.60572,0.60573 0.15143,1.66574 -2.57433,5.75438 -4.08864,9.99445 -1.36288,4.08864 -2.87719,9.84301 -0.30286,1.06002 -0.75715,1.81718 -0.45429,0.75715 -1.21145,0.75715 -1.21145,0 -1.81717,-1.36288 -0.45429,-1.36288 -0.45429,-2.12003 0,-4.3915 -1.66575,-5.90581 -1.51431,-1.66574 -3.9372,-1.81717 -1.66574,-0.15143 -5.45152,-0.15143 -3.63434,-0.15144 -7.11725,-0.15144 -3.48292,0 -4.8458,0 -2.57432,0 -4.54293,0.75716 -1.81717,0.60572 -2.72575,3.93721 l -7.72299,26.95471 q -1.51431,5.14866 -1.06001,7.87442 0.45429,2.57432 2.72576,3.63434 2.42289,1.06002 6.3601,1.9686 2.27146,0.4543 3.02862,1.06002 0.75715,0.45429 0.75715,1.66574 0,1.06002 -1.36288,1.36288 -1.36288,0.30286 -3.18005,0.30286 -3.78577,0 -6.3601,-0.30286 -2.4229,-0.30286 -4.69436,-0.45429 -2.120025,-0.30287 -5.148649,-0.30287 -5.148654,0 -8.782998,0.4543 -3.482913,0.60572 -9.237291,0.60572 z m 76.472208,1.36288 q -1.81717,0 -3.63434,-1.06002 -1.81717,-0.90858 -3.02862,-2.42289 -1.06002,-1.51431 -1.06002,-3.18005 0,-5.45152 3.63435,-12.56878 3.63434,-7.26868 10.14587,-15.1431 6.51154,-8.02584 14.99167,-15.44596 8.17728,-7.11726 13.32593,-10.60017 5.14865,-3.63434 7.57155,-3.63434 2.4229,0 4.24007,2.12003 2.12003,2.72576 1.81717,2.57433 -0.15143,-0.30286 0,-0.30286 0.30286,0 0.45429,-0.15143 0.30286,-0.30287 0.4543,-0.75716 2.12003,-3.63434 2.57432,-4.3915 0.4543,-0.75715 0,-0.15143 0.90859,-1.51431 1.81717,-1.51431 1.36288,0 2.72576,0.45429 1.36288,0.4543 2.12004,1.21145 0.90858,0.75716 0.90858,1.51431 0,0.75716 -1.06001,3.78578 l -16.96028,44.975 q -1.9686,5.14866 1.96861,5.14866 2.72575,0 6.51153,-2.57433 3.93721,-2.72576 6.81439,-6.51153 0.30287,-0.30286 0.60573,-0.4543 0.45429,-0.30286 0.75715,-0.30286 0.60573,0 0.75716,0.4543 0.30286,0.30286 0.30286,1.21144 0,1.06002 -2.12003,4.24007 -2.12004,3.02862 -4.3915,5.30009 -4.24007,3.9372 -8.63157,6.05724 -4.24007,2.12003 -7.87441,2.12003 -1.51431,0 -3.02862,-0.90859 -1.51431,-0.90858 -2.57433,-2.27146 -0.90858,-1.36288 -0.90858,-2.72576 0,-1.66574 0.90858,-3.48291 -0.60572,1.36288 -0.15143,0 0.60572,-1.36288 1.81717,-4.24007 1.36288,-2.87719 2.87719,-6.05724 1.51431,-3.18005 2.57433,-5.60295 0.75715,-1.66574 0.60572,-2.42289 0,-0.90859 -0.90858,0.15143 -9.23729,10.29731 -15.90026,16.35455 -6.51153,6.05724 -11.50875,8.63156 -4.99723,2.57433 -9.54016,2.57433 z m 8.48014,-9.54015 q 3.33148,0 9.84301,-5.45152 6.66297,-5.60295 14.99167,-15.44596 5.75438,-6.66296 9.08586,-12.26591 3.33148,-5.60295 3.33148,-8.32871 0,-1.21144 -1.9686,-2.87719 -0.90858,-0.75715 -1.9686,-1.21144 -1.06002,-0.4543 -1.81717,-0.4543 -2.72576,0 -7.57155,2.72576 -4.69436,2.72576 -8.63157,6.51153 -4.99722,4.8458 -9.54015,10.90304 -4.54293,6.05724 -7.42012,11.66018 -2.72576,5.60295 -2.72576,9.08586 0,2.27147 1.21145,3.78578 1.21145,1.36288 3.18005,1.36288 z"
       id="text1"
       style="font-style:italic;font-size:151.431px;line-height:1.3;font-family:'EB Garamond';-inkscape-font-specification:'EB Garamond Italic';letter-spacing:0px;word-spacing:0px;fill:#feffff;stroke-width:25.6881;paint-order:fill markers stroke"
       aria-label="Fa" />
    <g
       id="g3"
       transform="matrix(1.3632611,0,0,1.3632611,-25.020704,31.996338)">
      <g
         id="g10"
         transform="translate(6.9327604,14.443251)">
        <path
           style="fill:#feffff;fill-opacity:1;stroke-width:1.915;paint-order:fill markers stroke"
           d="m 57.297674,52.178294 c 0.417874,-0.218633 0.763594,-0.562633 1.017302,-0.96019 0.253709,-0.397557 0.418264,-0.847553 0.519288,-1.308219 0.202048,-0.921333 0.154087,-1.875913 0.17056,-2.818996 0.01647,-0.943084 0.107315,-1.916142 0.554139,-2.74682 0.223412,-0.415339 0.535845,-0.787549 0.928685,-1.048503 0.392839,-0.260953 0.868357,-0.406033 1.338707,-0.371535 0.466321,0.0342 0.912148,0.243813 1.260693,0.555488 0.348544,0.311675 0.602501,0.721301 0.761502,1.161009 0.318003,0.879417 0.260112,1.848912 0.115867,2.772867 -0.144245,0.923954 -0.371069,1.841299 -0.378502,2.776416 -0.0037,0.467559 0.04851,0.938315 0.190609,1.383772 0.142101,0.445457 0.376577,0.865557 0.707972,1.195409 0.359296,0.357623 0.823798,0.600174 1.312862,0.733605 0.489064,0.133432 1.002677,0.161187 1.508395,0.126013 1.011436,-0.07035 1.987313,-0.386589 2.981336,-0.586263 0.994023,-0.199675 2.058524,-0.276253 2.993674,0.115468 0.467576,0.19586 0.891346,0.510046 1.179785,0.926929 0.288439,0.416882 0.434161,0.939183 0.361157,1.440838 -0.06406,0.440224 -0.292828,0.848692 -0.609634,1.160999 -0.316806,0.312307 -0.718041,0.531672 -1.141855,0.666885 -0.847629,0.270428 -1.761418,0.209851 -2.647201,0.126223 -0.885784,-0.08363 -1.788661,-0.186607 -2.657442,0.0053 -0.43439,0.09595 -0.855993,0.26717 -1.212525,0.533227 -0.356532,0.266057 -0.645654,0.630327 -0.788709,1.051559 -0.122428,0.360493 -0.135392,0.753496 -0.06592,1.127818 0.06948,0.374322 0.219247,0.730807 0.412512,1.05882 0.386531,0.656025 0.939298,1.194357 1.455156,1.754416 0.515857,0.560059 1.011467,1.168937 1.242515,1.894465 0.115524,0.362765 0.161175,0.751033 0.103268,1.127318 -0.05791,0.376285 -0.222819,0.739769 -0.489394,1.01158 -0.264506,0.269701 -0.621491,0.441239 -0.99371,0.505696 -0.37222,0.06446 -0.758658,0.02502 -1.119268,-0.08751 -0.721219,-0.225059 -1.322677,-0.727279 -1.848368,-1.269918 -0.525691,-0.542639 -0.998942,-1.139239 -1.576197,-1.626665 -0.577256,-0.487426 -1.287562,-0.867099 -2.043078,-0.86889 -0.449041,-0.0011 -0.893273,0.132843 -1.284725,0.352853 -0.391452,0.22001 -0.731809,0.524014 -1.021833,0.866832 -0.58005,0.685638 -0.956915,1.515144 -1.35758,2.3189 -0.400665,0.803756 -0.846163,1.610552 -1.523231,2.200581 -0.338535,0.295015 -0.733061,0.530934 -1.164076,0.65689 -0.431015,0.125957 -0.899443,0.138441 -1.327626,0.0032 -0.501476,-0.158428 -0.929954,-0.515688 -1.211574,-0.959837 -0.281619,-0.444149 -0.421094,-0.970571 -0.43873,-1.496183 -0.03527,-1.051222 0.399183,-2.062464 0.926464,-2.972567 0.527281,-0.910103 1.157622,-1.765262 1.577992,-2.729421 0.210185,-0.482079 0.366504,-0.991061 0.420023,-1.514238 0.05352,-0.523177 0.0016,-1.061729 -0.191227,-1.551009 -0.322072,-0.817214 -1.010558,-1.440211 -1.759158,-1.899742 -0.7486,-0.459531 -1.57149,-0.783589 -2.3459,-1.198148 -0.774411,-0.414558 -1.520951,-0.941582 -1.981974,-1.689264 -0.230511,-0.37384 -0.383992,-0.799074 -0.414487,-1.237209 -0.03049,-0.438136 0.0659,-0.888801 0.299193,-1.260909 0.22145,-0.35321 0.56002,-0.626525 0.94087,-0.796086 0.380849,-0.169561 0.802452,-0.238269 1.219234,-0.22876 0.833563,0.01902 1.62931,0.34127 2.378091,0.708035 0.748781,0.366765 1.479589,0.785577 2.279222,1.021749 0.399816,0.118085 0.81581,0.189261 1.232596,0.179962 0.416787,-0.0093 0.834864,-0.100937 1.20425,-0.294201 z"
           id="path3"
           inkscape:path-effect="#path-effect4"
           inkscape:original-d="m 57.297674,52.178294 c 4.463047,-0.262532 -0.371147,-10.197765 4.528681,-9.254263 7.670286,1.476976 1.435725,5.736673 2.658141,9.844961 1.294266,4.34976 8.105684,0.525065 10.337209,2.75659 2.231525,2.231522 -6.563308,2.756589 -9.057366,3.544185 -2.494055,0.787596 2.789407,5.217829 2.658142,7.974417 -0.131268,2.756591 -5.217831,-2.297157 -7.580621,-3.347286 -2.36279,-1.050128 -4.528681,7.744703 -7.679071,6.399224 -2.907265,-1.241645 1.34548,-8.072867 1.082948,-11.223255 -0.262533,-3.150386 -4.758399,-4.266149 -6.202326,-7.285272 -1.443929,-3.019121 4.791213,0.853232 9.254263,0.590699 z"
           sodipodi:nodetypes="sssssssssss" />
        <circle
           style="fill:#5f88dc;fill-opacity:1;stroke-width:2.32459;paint-order:fill markers stroke"
           id="circle3"
           cx="60.046181"
           cy="57.034298"
           r="2.0316103" />
      </g>
    </g>
    <g
       id="g4"
       transform="matrix(0.50908004,0,0,0.50908004,62.22504,27.370572)">
      <path
         style="fill:#feffff;fill-opacity:1;stroke-width:1.915;paint-order:fill markers stroke"
         d="m 57.297674,52.178294 c 0.417874,-0.218633 0.763594,-0.562633 1.017302,-0.96019 0.253709,-0.397557 0.418264,-0.847553 0.519288,-1.308219 0.202048,-0.921333 0.154087,-1.875913 0.17056,-2.818996 0.01647,-0.943084 0.107315,-1.916142 0.554139,-2.74682 0.223412,-0.415339 0.535845,-0.787549 0.928685,-1.048503 0.392839,-0.260953 0.868357,-0.406033 1.338707,-0.371535 0.466321,0.0342 0.912148,0.243813 1.260693,0.555488 0.348544,0.311675 0.602501,0.721301 0.761502,1.161009 0.318003,0.879417 0.260112,1.848912 0.115867,2.772867 -0.144245,0.923954 -0.371069,1.841299 -0.378502,2.776416 -0.0037,0.467559 0.04851,0.938315 0.190609,1.383772 0.142101,0.445457 0.376577,0.865557 0.707972,1.195409 0.359296,0.357623 0.823798,0.600174 1.312862,0.733605 0.489064,0.133432 1.002677,0.161187 1.508395,0.126013 1.011436,-0.07035 1.987313,-0.386589 2.981336,-0.586263 0.994023,-0.199675 2.058524,-0.276253 2.993674,0.115468 0.467576,0.19586 0.891346,0.510046 1.179785,0.926929 0.288439,0.416882 0.434161,0.939183 0.361157,1.440838 -0.06406,0.440224 -0.292828,0.848692 -0.609634,1.160999 -0.316806,0.312307 -0.718041,0.531672 -1.141855,0.666885 -0.847629,0.270428 -1.761418,0.209851 -2.647201,0.126223 -0.885784,-0.08363 -1.788661,-0.186607 -2.657442,0.0053 -0.43439,0.09595 -0.855993,0.26717 -1.212525,0.533227 -0.356532,0.266057 -0.645654,0.630327 -0.788709,1.051559 -0.122428,0.360493 -0.135392,0.753496 -0.06592,1.127818 0.06948,0.374322 0.219247,0.730807 0.412512,1.05882 0.386531,0.656025 0.939298,1.194357 1.455156,1.754416 0.515857,0.560059 1.011467,1.168937 1.242515,1.894465 0.115524,0.362765 0.161175,0.751033 0.103268,1.127318 -0.05791,0.376285 -0.222819,0.739769 -0.489394,1.01158 -0.264506,0.269701 -0.621491,0.441239 -0.99371,0.505696 -0.37222,0.06446 -0.758658,0.02502 -1.119268,-0.08751 -0.721219,-0.225059 -1.322677,-0.727279 -1.848368,-1.269918 -0.525691,-0.542639 -0.998942,-1.139239 -1.576197,-1.626665 -0.577256,-0.487426 -1.287562,-0.867099 -2.043078,-0.86889 -0.449041,-0.0011 -0.893273,0.132843 -1.284725,0.352853 -0.391452,0.22001 -0.731809,0.524014 -1.021833,0.866832 -0.58005,0.685638 -0.956915,1.515144 -1.35758,2.3189 -0.400665,0.803756 -0.846163,1.610552 -1.523231,2.200581 -0.338535,0.295015 -0.733061,0.530934 -1.164076,0.65689 -0.431015,0.125957 -0.899443,0.138441 -1.327626,0.0032 -0.501476,-0.158428 -0.929954,-0.515688 -1.211574,-0.959837 -0.281619,-0.444149 -0.421094,-0.970571 -0.43873,-1.496183 -0.03527,-1.051222 0.399183,-2.062464 0.926464,-2.972567 0.527281,-0.910103 1.157622,-1.765262 1.577992,-2.729421 0.210185,-0.482079 0.366504,-0.991061 0.420023,-1.514238 0.05352,-0.523177 0.0016,-1.061729 -0.191227,-1.551009 -0.322072,-0.817214 -1.010558,-1.440211 -1.759158,-1.899742 -0.7486,-0.459531 -1.57149,-0.783589 -2.3459,-1.198148 -0.774411,-0.414558 -1.520951,-0.941582 -1.981974,-1.689264 -0.230511,-0.37384 -0.383992,-0.799074 -0.414487,-1.237209 -0.03049,-0.438136 0.0659,-0.888801 0.299193,-1.260909 0.22145,-0.35321 0.56002,-0.626525 0.94087,-0.796086 0.380849,-0.169561 0.802452,-0.238269 1.219234,-0.22876 0.833563,0.01902 1.62931,0.34127 2.378091,0.708035 0.748781,0.366765 1.479589,0.785577 2.279222,1.021749 0.399816,0.118085 0.81581,0.189261 1.232596,0.179962 0.416787,-0.0093 0.834864,-0.100937 1.20425,-0.294201 z"
         id="path4"
         inkscape:path-effect="#path-effect6"
         inkscape:original-d="m 57.297674,52.178294 c 4.463047,-0.262532 -0.371147,-10.197765 4.528681,-9.254263 7.670286,1.476976 1.435725,5.736673 2.658141,9.844961 1.294266,4.34976 8.105684,0.525065 10.337209,2.75659 2.231525,2.231522 -6.563308,2.756589 -9.057366,3.544185 -2.494055,0.787596 2.789407,5.217829 2.658142,7.974417 -0.131268,2.756591 -5.217831,-2.297157 -7.580621,-3.347286 -2.36279,-1.050128 -4.528681,7.744703 -7.679071,6.399224 -2.907265,-1.241645 1.34548,-8.072867 1.082948,-11.223255 -0.262533,-3.150386 -4.758399,-4.266149 -6.202326,-7.285272 -1.443929,-3.019121 4.791213,0.853232 9.254263,0.590699 z"
         sodipodi:nodetypes="sssssssssss" />
      <circle
         style="fill:#5f88dc;fill-opacity:1;stroke-width:2.32459;paint-order:fill markers stroke"
         id="circle4"
         cx="60.046181"
         cy="57.034298"
         r="2.0316103" />
    </g>
    <g
       id="g6"
       transform="matrix(1.4781303,0,0,1.4781303,53.349826,-16.62787)">
      <path
         style="fill:#feffff;fill-opacity:1;stroke-width:1.915;paint-order:fill markers stroke"
         d="m 57.297674,52.178294 c 0.417874,-0.218633 0.763594,-0.562633 1.017302,-0.96019 0.253709,-0.397557 0.418264,-0.847553 0.519288,-1.308219 0.202048,-0.921333 0.154087,-1.875913 0.17056,-2.818996 0.01647,-0.943084 0.107315,-1.916142 0.554139,-2.74682 0.223412,-0.415339 0.535845,-0.787549 0.928685,-1.048503 0.392839,-0.260953 0.868357,-0.406033 1.338707,-0.371535 0.466321,0.0342 0.912148,0.243813 1.260693,0.555488 0.348544,0.311675 0.602501,0.721301 0.761502,1.161009 0.318003,0.879417 0.260112,1.848912 0.115867,2.772867 -0.144245,0.923954 -0.371069,1.841299 -0.378502,2.776416 -0.0037,0.467559 0.04851,0.938315 0.190609,1.383772 0.142101,0.445457 0.376577,0.865557 0.707972,1.195409 0.359296,0.357623 0.823798,0.600174 1.312862,0.733605 0.489064,0.133432 1.002677,0.161187 1.508395,0.126013 1.011436,-0.07035 1.987313,-0.386589 2.981336,-0.586263 0.994023,-0.199675 2.058524,-0.276253 2.993674,0.115468 0.467576,0.19586 0.891346,0.510046 1.179785,0.926929 0.288439,0.416882 0.434161,0.939183 0.361157,1.440838 -0.06406,0.440224 -0.292828,0.848692 -0.609634,1.160999 -0.316806,0.312307 -0.718041,0.531672 -1.141855,0.666885 -0.847629,0.270428 -1.761418,0.209851 -2.647201,0.126223 -0.885784,-0.08363 -1.788661,-0.186607 -2.657442,0.0053 -0.43439,0.09595 -0.855993,0.26717 -1.212525,0.533227 -0.356532,0.266057 -0.645654,0.630327 -0.788709,1.051559 -0.122428,0.360493 -0.135392,0.753496 -0.06592,1.127818 0.06948,0.374322 0.219247,0.730807 0.412512,1.05882 0.386531,0.656025 0.939298,1.194357 1.455156,1.754416 0.515857,0.560059 1.011467,1.168937 1.242515,1.894465 0.115524,0.362765 0.161175,0.751033 0.103268,1.127318 -0.05791,0.376285 -0.222819,0.739769 -0.489394,1.01158 -0.264506,0.269701 -0.621491,0.441239 -0.99371,0.505696 -0.37222,0.06446 -0.758658,0.02502 -1.119268,-0.08751 -0.721219,-0.225059 -1.322677,-0.727279 -1.848368,-1.269918 -0.525691,-0.542639 -0.998942,-1.139239 -1.576197,-1.626665 -0.577256,-0.487426 -1.287562,-0.867099 -2.043078,-0.86889 -0.449041,-0.0011 -0.893273,0.132843 -1.284725,0.352853 -0.391452,0.22001 -0.731809,0.524014 -1.021833,0.866832 -0.58005,0.685638 -0.956915,1.515144 -1.35758,2.3189 -0.400665,0.803756 -0.846163,1.610552 -1.523231,2.200581 -0.338535,0.295015 -0.733061,0.530934 -1.164076,0.65689 -0.431015,0.125957 -0.899443,0.138441 -1.327626,0.0032 -0.501476,-0.158428 -0.929954,-0.515688 -1.211574,-0.959837 -0.281619,-0.444149 -0.421094,-0.970571 -0.43873,-1.496183 -0.03527,-1.051222 0.399183,-2.062464 0.926464,-2.972567 0.527281,-0.910103 1.157622,-1.765262 1.577992,-2.729421 0.210185,-0.482079 0.366504,-0.991061 0.420023,-1.514238 0.05352,-0.523177 0.0016,-1.061729 -0.191227,-1.551009 -0.322072,-0.817214 -1.010558,-1.440211 -1.759158,-1.899742 -0.7486,-0.459531 -1.57149,-0.783589 -2.3459,-1.198148 -0.774411,-0.414558 -1.520951,-0.941582 -1.981974,-1.689264 -0.230511,-0.37384 -0.383992,-0.799074 -0.414487,-1.237209 -0.03049,-0.438136 0.0659,-0.888801 0.299193,-1.260909 0.22145,-0.35321 0.56002,-0.626525 0.94087,-0.796086 0.380849,-0.169561 0.802452,-0.238269 1.219234,-0.22876 0.833563,0.01902 1.62931,0.34127 2.378091,0.708035 0.748781,0.366765 1.479589,0.785577 2.279222,1.021749 0.399816,0.118085 0.81581,0.189261 1.232596,0.179962 0.416787,-0.0093 0.834864,-0.100937 1.20425,-0.294201 z"
         id="path6"
         inkscape:path-effect="#path-effect8"
         inkscape:original-d="m 57.297674,52.178294 c 4.463047,-0.262532 -0.371147,-10.197765 4.528681,-9.254263 7.670286,1.476976 1.435725,5.736673 2.658141,9.844961 1.294266,4.34976 8.105684,0.525065 10.337209,2.75659 2.231525,2.231522 -6.563308,2.756589 -9.057366,3.544185 -2.494055,0.787596 2.789407,5.217829 2.658142,7.974417 -0.131268,2.756591 -5.217831,-2.297157 -7.580621,-3.347286 -2.36279,-1.050128 -4.528681,7.744703 -7.679071,6.399224 -2.907265,-1.241645 1.34548,-8.072867 1.082948,-11.223255 -0.262533,-3.150386 -4.758399,-4.266149 -6.202326,-7.285272 -1.443929,-3.019121 4.791213,0.853232 9.254263,0.590699 z"
         sodipodi:nodetypes="sssssssssss" />
      <circle
         style="fill:#5f88dc;fill-opacity:1;stroke-width:2.32459;paint-order:fill markers stroke"
         id="circle6"
         cx="60.046181"
         cy="57.034298"
         r="2.0316103" />
    </g>
    <g
       id="g8"
       transform="matrix(0.62569005,0,0,0.62569005,154.71403,61.74563)">
      <path
         style="fill:#feffff;fill-opacity:1;stroke-width:1.915;paint-order:fill markers stroke"
         d="m 57.297674,52.178294 c 0.417874,-0.218633 0.763594,-0.562633 1.017302,-0.96019 0.253709,-0.397557 0.418264,-0.847553 0.519288,-1.308219 0.202048,-0.921333 0.154087,-1.875913 0.17056,-2.818996 0.01647,-0.943084 0.107315,-1.916142 0.554139,-2.74682 0.223412,-0.415339 0.535845,-0.787549 0.928685,-1.048503 0.392839,-0.260953 0.868357,-0.406033 1.338707,-0.371535 0.466321,0.0342 0.912148,0.243813 1.260693,0.555488 0.348544,0.311675 0.602501,0.721301 0.761502,1.161009 0.318003,0.879417 0.260112,1.848912 0.115867,2.772867 -0.144245,0.923954 -0.371069,1.841299 -0.378502,2.776416 -0.0037,0.467559 0.04851,0.938315 0.190609,1.383772 0.142101,0.445457 0.376577,0.865557 0.707972,1.195409 0.359296,0.357623 0.823798,0.600174 1.312862,0.733605 0.489064,0.133432 1.002677,0.161187 1.508395,0.126013 1.011436,-0.07035 1.987313,-0.386589 2.981336,-0.586263 0.994023,-0.199675 2.058524,-0.276253 2.993674,0.115468 0.467576,0.19586 0.891346,0.510046 1.179785,0.926929 0.288439,0.416882 0.434161,0.939183 0.361157,1.440838 -0.06406,0.440224 -0.292828,0.848692 -0.609634,1.160999 -0.316806,0.312307 -0.718041,0.531672 -1.141855,0.666885 -0.847629,0.270428 -1.761418,0.209851 -2.647201,0.126223 -0.885784,-0.08363 -1.788661,-0.186607 -2.657442,0.0053 -0.43439,0.09595 -0.855993,0.26717 -1.212525,0.533227 -0.356532,0.266057 -0.645654,0.630327 -0.788709,1.051559 -0.122428,0.360493 -0.135392,0.753496 -0.06592,1.127818 0.06948,0.374322 0.219247,0.730807 0.412512,1.05882 0.386531,0.656025 0.939298,1.194357 1.455156,1.754416 0.515857,0.560059 1.011467,1.168937 1.242515,1.894465 0.115524,0.362765 0.161175,0.751033 0.103268,1.127318 -0.05791,0.376285 -0.222819,0.739769 -0.489394,1.01158 -0.264506,0.269701 -0.621491,0.441239 -0.99371,0.505696 -0.37222,0.06446 -0.758658,0.02502 -1.119268,-0.08751 -0.721219,-0.225059 -1.322677,-0.727279 -1.848368,-1.269918 -0.525691,-0.542639 -0.998942,-1.139239 -1.576197,-1.626665 -0.577256,-0.487426 -1.287562,-0.867099 -2.043078,-0.86889 -0.449041,-0.0011 -0.893273,0.132843 -1.284725,0.352853 -0.391452,0.22001 -0.731809,0.524014 -1.021833,0.866832 -0.58005,0.685638 -0.956915,1.515144 -1.35758,2.3189 -0.400665,0.803756 -0.846163,1.610552 -1.523231,2.200581 -0.338535,0.295015 -0.733061,0.530934 -1.164076,0.65689 -0.431015,0.125957 -0.899443,0.138441 -1.327626,0.0032 -0.501476,-0.158428 -0.929954,-0.515688 -1.211574,-0.959837 -0.281619,-0.444149 -0.421094,-0.970571 -0.43873,-1.496183 -0.03527,-1.051222 0.399183,-2.062464 0.926464,-2.972567 0.527281,-0.910103 1.157622,-1.765262 1.577992,-2.729421 0.210185,-0.482079 0.366504,-0.991061 0.420023,-1.514238 0.05352,-0.523177 0.0016,-1.061729 -0.191227,-1.551009 -0.322072,-0.817214 -1.010558,-1.440211 -1.759158,-1.899742 -0.7486,-0.459531 -1.57149,-0.783589 -2.3459,-1.198148 -0.774411,-0.414558 -1.520951,-0.941582 -1.981974,-1.689264 -0.230511,-0.37384 -0.383992,-0.799074 -0.414487,-1.237209 -0.03049,-0.438136 0.0659,-0.888801 0.299193,-1.260909 0.22145,-0.35321 0.56002,-0.626525 0.94087,-0.796086 0.380849,-0.169561 0.802452,-0.238269 1.219234,-0.22876 0.833563,0.01902 1.62931,0.34127 2.378091,0.708035 0.748781,0.366765 1.479589,0.785577 2.279222,1.021749 0.399816,0.118085 0.81581,0.189261 1.232596,0.179962 0.416787,-0.0093 0.834864,-0.100937 1.20425,-0.294201 z"
         id="path8"
         inkscape:path-effect="#path-effect10"
         inkscape:original-d="m 57.297674,52.178294 c 4.463047,-0.262532 -0.371147,-10.197765 4.528681,-9.254263 7.670286,1.476976 1.435725,5.736673 2.658141,9.844961 1.294266,4.34976 8.105684,0.525065 10.337209,2.75659 2.231525,2.231522 -6.563308,2.756589 -9.057366,3.544185 -2.494055,0.787596 2.789407,5.217829 2.658142,7.974417 -0.131268,2.756591 -5.217831,-2.297157 -7.580621,-3.347286 -2.36279,-1.050128 -4.528681,7.744703 -7.679071,6.399224 -2.907265,-1.241645 1.34548,-8.072867 1.082948,-11.223255 -0.262533,-3.150386 -4.758399,-4.266149 -6.202326,-7.285272 -1.443929,-3.019121 4.791213,0.853232 9.254263,0.590699 z"
         sodipodi:nodetypes="sssssssssss" />
      <circle
         style="fill:#5f88dc;fill-opacity:1;stroke-width:2.32459;paint-order:fill markers stroke"
         id="circle8"
         cx="60.046181"
         cy="57.034298"
         r="2.0316103" />
    </g>
    <g
       id="g2"
       transform="matrix(0.91519951,0,0,0.91519951,4.2451693,21.310506)">
      <path
         style="fill:#feffff;fill-opacity:1;stroke-width:1.915;paint-order:fill markers stroke"
         d="m 57.297674,52.178294 c 0.417874,-0.218633 0.763594,-0.562633 1.017302,-0.96019 0.253709,-0.397557 0.418264,-0.847553 0.519288,-1.308219 0.202048,-0.921333 0.154087,-1.875913 0.17056,-2.818996 0.01647,-0.943084 0.107315,-1.916142 0.554139,-2.74682 0.223412,-0.415339 0.535845,-0.787549 0.928685,-1.048503 0.392839,-0.260953 0.868357,-0.406033 1.338707,-0.371535 0.466321,0.0342 0.912148,0.243813 1.260693,0.555488 0.348544,0.311675 0.602501,0.721301 0.761502,1.161009 0.318003,0.879417 0.260112,1.848912 0.115867,2.772867 -0.144245,0.923954 -0.371069,1.841299 -0.378502,2.776416 -0.0037,0.467559 0.04851,0.938315 0.190609,1.383772 0.142101,0.445457 0.376577,0.865557 0.707972,1.195409 0.359296,0.357623 0.823798,0.600174 1.312862,0.733605 0.489064,0.133432 1.002677,0.161187 1.508395,0.126013 1.011436,-0.07035 1.987313,-0.386589 2.981336,-0.586263 0.994023,-0.199675 2.058524,-0.276253 2.993674,0.115468 0.467576,0.19586 0.891346,0.510046 1.179785,0.926929 0.288439,0.416882 0.434161,0.939183 0.361157,1.440838 -0.06406,0.440224 -0.292828,0.848692 -0.609634,1.160999 -0.316806,0.312307 -0.718041,0.531672 -1.141855,0.666885 -0.847629,0.270428 -1.761418,0.209851 -2.647201,0.126223 -0.885784,-0.08363 -1.788661,-0.186607 -2.657442,0.0053 -0.43439,0.09595 -0.855993,0.26717 -1.212525,0.533227 -0.356532,0.266057 -0.645654,0.630327 -0.788709,1.051559 -0.122428,0.360493 -0.135392,0.753496 -0.06592,1.127818 0.06948,0.374322 0.219247,0.730807 0.412512,1.05882 0.386531,0.656025 0.939298,1.194357 1.455156,1.754416 0.515857,0.560059 1.011467,1.168937 1.242515,1.894465 0.115524,0.362765 0.161175,0.751033 0.103268,1.127318 -0.05791,0.376285 -0.222819,0.739769 -0.489394,1.01158 -0.264506,0.269701 -0.621491,0.441239 -0.99371,0.505696 -0.37222,0.06446 -0.758658,0.02502 -1.119268,-0.08751 -0.721219,-0.225059 -1.322677,-0.727279 -1.848368,-1.269918 -0.525691,-0.542639 -0.998942,-1.139239 -1.576197,-1.626665 -0.577256,-0.487426 -1.287562,-0.867099 -2.043078,-0.86889 -0.449041,-0.0011 -0.893273,0.132843 -1.284725,0.352853 -0.391452,0.22001 -0.731809,0.524014 -1.021833,0.866832 -0.58005,0.685638 -0.956915,1.515144 -1.35758,2.3189 -0.400665,0.803756 -0.846163,1.610552 -1.523231,2.200581 -0.338535,0.295015 -0.733061,0.530934 -1.164076,0.65689 -0.431015,0.125957 -0.899443,0.138441 -1.327626,0.0032 -0.501476,-0.158428 -0.929954,-0.515688 -1.211574,-0.959837 -0.281619,-0.444149 -0.421094,-0.970571 -0.43873,-1.496183 -0.03527,-1.051222 0.399183,-2.062464 0.926464,-2.972567 0.527281,-0.910103 1.157622,-1.765262 1.577992,-2.729421 0.210185,-0.482079 0.366504,-0.991061 0.420023,-1.514238 0.05352,-0.523177 0.0016,-1.061729 -0.191227,-1.551009 -0.322072,-0.817214 -1.010558,-1.440211 -1.759158,-1.899742 -0.7486,-0.459531 -1.57149,-0.783589 -2.3459,-1.198148 -0.774411,-0.414558 -1.520951,-0.941582 -1.981974,-1.689264 -0.230511,-0.37384 -0.383992,-0.799074 -0.414487,-1.237209 -0.03049,-0.438136 0.0659,-0.888801 0.299193,-1.260909 0.22145,-0.35321 0.56002,-0.626525 0.94087,-0.796086 0.380849,-0.169561 0.802452,-0.238269 1.219234,-0.22876 0.833563,0.01902 1.62931,0.34127 2.378091,0.708035 0.748781,0.366765 1.479589,0.785577 2.279222,1.021749 0.399816,0.118085 0.81581,0.189261 1.232596,0.179962 0.416787,-0.0093 0.834864,-0.100937 1.20425,-0.294201 z"
         id="path1"
         inkscape:path-effect="#path-effect1"
         inkscape:original-d="m 57.297674,52.178294 c 4.463047,-0.262532 -0.371147,-10.197765 4.528681,-9.254263 7.670286,1.476976 1.435725,5.736673 2.658141,9.844961 1.294266,4.34976 8.105684,0.525065 10.337209,2.75659 2.231525,2.231522 -6.563308,2.756589 -9.057366,3.544185 -2.494055,0.787596 2.789407,5.217829 2.658142,7.974417 -0.131268,2.756591 -5.217831,-2.297157 -7.580621,-3.347286 -2.36279,-1.050128 -4.528681,7.744703 -7.679071,6.399224 -2.907265,-1.241645 1.34548,-8.072867 1.082948,-11.223255 -0.262533,-3.150386 -4.758399,-4.266149 -6.202326,-7.285272 -1.443929,-3.019121 4.791213,0.853232 9.254263,0.590699 z"
         sodipodi:nodetypes="sssssssssss" />
      <circle
         style="fill:#5f88dc;fill-opacity:1;stroke-width:2.32459;paint-order:fill markers stroke"
         id="path2"
         cx="60.046181"
         cy="57.034298"
         r="2.0316103" />
    </g>
  </g>
</svg>
